{
    "asset" : {
        "generator" : "Khronos glTF Blender I/O v1.7.33",
        "version" : "2.0"
    },
    "scene" : 0,
    "scenes" : [
        {
            "name" : "Scene",
            "nodes" : [
                0
            ]
        }
    ],
    "nodes" : [
        {
            "mesh" : 0,
            "name" : "Frida_3D-Scan_bearbeitet.001",
            "rotation" : [
                -0.0233371090143919,
                0.4319050908088684,
                -0.9003039598464966,
                0.048645440489053726
            ],
            "scale" : [
                0.009064723737537861,
                0.009064723737537861,
                0.009064723737537861
            ],
            "translation" : [
                -0.5466693043708801,
                5.472105979919434,
                3.0897908210754395
            ]
        }
    ],
    "materials" : [
        {
            "doubleSided" : true,
            "name" : "m1",
            "pbrMetallicRoughness" : {
                "baseColorTexture" : {
                    "index" : 0
                },
                "metallicFactor" : 0
            }
        }
    ],
    "meshes" : [
        {
            "name" : "Frida_3D-Scan_bearbeitet.001",
            "primitives" : [
                {
                    "attributes" : {
                        "POSITION" : 0,
                        "NORMAL" : 1,
                        "TEXCOORD_0" : 2
                    },
                    "indices" : 3,
                    "material" : 0
                }
            ]
        }
    ],
    "textures" : [
        {
            "sampler" : 0,
            "source" : 0
        }
    ],
    "images" : [
        {
            "mimeType" : "image/png",
            "name" : "Frida_3D-Scan_bearbeitet",
            "uri" : "Frida_3D-Scan_bearbeitet.png"
        }
    ],
    "accessors" : [
        {
            "bufferView" : 0,
            "componentType" : 5126,
            "count" : 1353479,
            "max" : [
                116.16344451904297,
                706.5532836914062,
                294.53619384765625
            ],
            "min" : [
                -171.62184143066406,
                298.23126220703125,
                -139.3804931640625
            ],
            "type" : "VEC3"
        },
        {
            "bufferView" : 1,
            "componentType" : 5126,
            "count" : 1353479,
            "type" : "VEC3"
        },
        {
            "bufferView" : 2,
            "componentType" : 5126,
            "count" : 1353479,
            "type" : "VEC2"
        },
        {
            "bufferView" : 3,
            "componentType" : 5125,
            "count" : 6705885,
            "type" : "SCALAR"
        }
    ],
    "bufferViews" : [
        {
            "buffer" : 0,
            "byteLength" : 16241748,
            "byteOffset" : 0
        },
        {
            "buffer" : 0,
            "byteLength" : 16241748,
            "byteOffset" : 16241748
        },
        {
            "buffer" : 0,
            "byteLength" : 10827832,
            "byteOffset" : 32483496
        },
        {
            "buffer" : 0,
            "byteLength" : 26823540,
            "byteOffset" : 43311328
        }
    ],
    "samplers" : [
        {
            "magFilter" : 9729,
            "minFilter" : 9987
        }
    ],
    "buffers" : [
        {
            "byteLength" : 70134868,
            "uri" : "Frida.bin"
        }
    ]
}
