{
    "asset" : {
        "generator" : "Khronos glTF Blender I/O v1.7.33",
        "version" : "2.0"
    },
    "scene" : 0,
    "scenes" : [
        {
            "name" : "Scene",
            "nodes" : [
                0
            ]
        }
    ],
    "nodes" : [
        {
            "mesh" : 0,
            "name" : "Landscape"
        }
    ],
    "materials" : [
        {
            "doubleSided" : true,
            "name" : "Material.002",
            "pbrMetallicRoughness" : {
                "baseColorFactor" : [
                    0.08049257099628448,
                    0.07813701033592224,
                    0.03784623369574547,
                    1
                ],
                "metallicFactor" : 0,
                "roughnessFactor" : 0.5
            }
        },
        {
            "doubleSided" : true,
            "name" : "Material.001",
            "pbrMetallicRoughness" : {
                "baseColorFactor" : [
                    0.23673860728740692,
                    0.1597694456577301,
                    0.02206672541797161,
                    1
                ],
                "metallicFactor" : 0,
                "roughnessFactor" : 0.5
            }
        },
        {
            "doubleSided" : true,
            "name" : "Material.003",
            "pbrMetallicRoughness" : {
                "baseColorFactor" : [
                    0,
                    0.07323580980300903,
                    0.0009971072431653738,
                    1
                ],
                "metallicFactor" : 0,
                "roughnessFactor" : 0.5
            }
        },
        {
            "doubleSided" : true,
            "name" : "Material.004",
            "pbrMetallicRoughness" : {
                "baseColorFactor" : [
                    0.0025955652818083763,
                    0.1137077733874321,
                    0.05547211691737175,
                    1
                ],
                "metallicFactor" : 0,
                "roughnessFactor" : 0.5
            }
        },
        {
            "doubleSided" : true,
            "name" : "Material.005",
            "pbrMetallicRoughness" : {
                "baseColorFactor" : [
                    0.0962766706943512,
                    0.09427754580974579,
                    0.08842556178569794,
                    1
                ],
                "metallicFactor" : 0,
                "roughnessFactor" : 0.5
            }
        },
        {
            "doubleSided" : true,
            "name" : "Material.006",
            "pbrMetallicRoughness" : {
                "baseColorFactor" : [
                    0.2758721113204956,
                    0.26981857419013977,
                    0.25212806463241577,
                    1
                ],
                "metallicFactor" : 0,
                "roughnessFactor" : 0.5
            }
        },
        {
            "doubleSided" : true,
            "name" : "Material.007",
            "pbrMetallicRoughness" : {
                "baseColorFactor" : [
                    0.08558280766010284,
                    0.06711288541555405,
                    0.056252866983413696,
                    1
                ],
                "metallicFactor" : 0,
                "roughnessFactor" : 0.5
            }
        },
        {
            "doubleSided" : true,
            "name" : "Material.009",
            "pbrMetallicRoughness" : {
                "baseColorFactor" : [
                    0.07400092482566833,
                    0.17254748940467834,
                    0.000146381018566899,
                    1
                ],
                "metallicFactor" : 0,
                "roughnessFactor" : 0.5
            }
        }
    ],
    "meshes" : [
        {
            "name" : "Cube",
            "primitives" : [
                {
                    "attributes" : {
                        "POSITION" : 0,
                        "NORMAL" : 1,
                        "TEXCOORD_0" : 2
                    },
                    "indices" : 3,
                    "material" : 0
                },
                {
                    "attributes" : {
                        "POSITION" : 4,
                        "NORMAL" : 5,
                        "TEXCOORD_0" : 6
                    },
                    "indices" : 7,
                    "material" : 1
                },
                {
                    "attributes" : {
                        "POSITION" : 8,
                        "NORMAL" : 9,
                        "TEXCOORD_0" : 10
                    },
                    "indices" : 11,
                    "material" : 2
                },
                {
                    "attributes" : {
                        "POSITION" : 12,
                        "NORMAL" : 13,
                        "TEXCOORD_0" : 14
                    },
                    "indices" : 15,
                    "material" : 3
                },
                {
                    "attributes" : {
                        "POSITION" : 16,
                        "NORMAL" : 17,
                        "TEXCOORD_0" : 18
                    },
                    "indices" : 19,
                    "material" : 4
                },
                {
                    "attributes" : {
                        "POSITION" : 20,
                        "NORMAL" : 21,
                        "TEXCOORD_0" : 22
                    },
                    "indices" : 23,
                    "material" : 5
                },
                {
                    "attributes" : {
                        "POSITION" : 24,
                        "NORMAL" : 25,
                        "TEXCOORD_0" : 26
                    },
                    "indices" : 27,
                    "material" : 6
                },
                {
                    "attributes" : {
                        "POSITION" : 28,
                        "NORMAL" : 29,
                        "TEXCOORD_0" : 30
                    },
                    "indices" : 31,
                    "material" : 7
                }
            ]
        }
    ],
    "accessors" : [
        {
            "bufferView" : 0,
            "componentType" : 5126,
            "count" : 326,
            "max" : [
                8.323823928833008,
                0.43375468254089355,
                0.8520642518997192
            ],
            "min" : [
                6.7216925621032715,
                0.04071970283985138,
                -0.6038857698440552
            ],
            "type" : "VEC3"
        },
        {
            "bufferView" : 1,
            "componentType" : 5126,
            "count" : 326,
            "type" : "VEC3"
        },
        {
            "bufferView" : 2,
            "componentType" : 5126,
            "count" : 326,
            "type" : "VEC2"
        },
        {
            "bufferView" : 3,
            "componentType" : 5123,
            "count" : 516,
            "type" : "SCALAR"
        },
        {
            "bufferView" : 4,
            "componentType" : 5126,
            "count" : 260,
            "max" : [
                10.052023887634277,
                0.05396095663309097,
                5.01275110244751
            ],
            "min" : [
                -5.990691184997559,
                -0.05396095663309097,
                -5.01275110244751
            ],
            "type" : "VEC3"
        },
        {
            "bufferView" : 5,
            "componentType" : 5126,
            "count" : 260,
            "type" : "VEC3"
        },
        {
            "bufferView" : 6,
            "componentType" : 5126,
            "count" : 260,
            "type" : "VEC2"
        },
        {
            "bufferView" : 7,
            "componentType" : 5123,
            "count" : 552,
            "type" : "SCALAR"
        },
        {
            "bufferView" : 8,
            "componentType" : 5126,
            "count" : 382,
            "max" : [
                6.645743370056152,
                0.6290793418884277,
                3.33211612701416
            ],
            "min" : [
                -2.6340229511260986,
                0.015806153416633606,
                -2.964566230773926
            ],
            "type" : "VEC3"
        },
        {
            "bufferView" : 9,
            "componentType" : 5126,
            "count" : 382,
            "type" : "VEC3"
        },
        {
            "bufferView" : 10,
            "componentType" : 5126,
            "count" : 382,
            "type" : "VEC2"
        },
        {
            "bufferView" : 11,
            "componentType" : 5123,
            "count" : 576,
            "type" : "SCALAR"
        },
        {
            "bufferView" : 12,
            "componentType" : 5126,
            "count" : 382,
            "max" : [
                3.7064905166625977,
                0.3124067187309265,
                2.332280158996582
            ],
            "min" : [
                0.5014826655387878,
                -0.0031419824808835983,
                -4.1019463539123535
            ],
            "type" : "VEC3"
        },
        {
            "bufferView" : 13,
            "componentType" : 5126,
            "count" : 382,
            "type" : "VEC3"
        },
        {
            "bufferView" : 14,
            "componentType" : 5126,
            "count" : 382,
            "type" : "VEC2"
        },
        {
            "bufferView" : 15,
            "componentType" : 5123,
            "count" : 576,
            "type" : "SCALAR"
        },
        {
            "bufferView" : 16,
            "componentType" : 5126,
            "count" : 120,
            "max" : [
                3.9798145294189453,
                0.5044341683387756,
                2.166651487350464
            ],
            "min" : [
                -1.7734109163284302,
                0.042736947536468506,
                -4.139831066131592
            ],
            "type" : "VEC3"
        },
        {
            "bufferView" : 17,
            "componentType" : 5126,
            "count" : 120,
            "type" : "VEC3"
        },
        {
            "bufferView" : 18,
            "componentType" : 5126,
            "count" : 120,
            "type" : "VEC2"
        },
        {
            "bufferView" : 19,
            "componentType" : 5123,
            "count" : 156,
            "type" : "SCALAR"
        },
        {
            "bufferView" : 20,
            "componentType" : 5126,
            "count" : 60,
            "max" : [
                7.51056432723999,
                0.5689090490341187,
                4.104893207550049
            ],
            "min" : [
                6.6917724609375,
                0.0031213760375976562,
                3.2439558506011963
            ],
            "type" : "VEC3"
        },
        {
            "bufferView" : 21,
            "componentType" : 5126,
            "count" : 60,
            "type" : "VEC3"
        },
        {
            "bufferView" : 22,
            "componentType" : 5126,
            "count" : 60,
            "type" : "VEC2"
        },
        {
            "bufferView" : 23,
            "componentType" : 5123,
            "count" : 78,
            "type" : "SCALAR"
        },
        {
            "bufferView" : 24,
            "componentType" : 5126,
            "count" : 80,
            "max" : [
                7.894534111022949,
                0.9520053863525391,
                -0.5857143402099609
            ],
            "min" : [
                6.892648696899414,
                0.0031213760375976562,
                -1.9588940143585205
            ],
            "type" : "VEC3"
        },
        {
            "bufferView" : 25,
            "componentType" : 5126,
            "count" : 80,
            "type" : "VEC3"
        },
        {
            "bufferView" : 26,
            "componentType" : 5126,
            "count" : 80,
            "type" : "VEC2"
        },
        {
            "bufferView" : 27,
            "componentType" : 5123,
            "count" : 126,
            "type" : "SCALAR"
        },
        {
            "bufferView" : 28,
            "componentType" : 5126,
            "count" : 190,
            "max" : [
                0.3539487421512604,
                0.24195629358291626,
                4.250669002532959
            ],
            "min" : [
                -0.748650312423706,
                -0.010136395692825317,
                3.1459262371063232
            ],
            "type" : "VEC3"
        },
        {
            "bufferView" : 29,
            "componentType" : 5126,
            "count" : 190,
            "type" : "VEC3"
        },
        {
            "bufferView" : 30,
            "componentType" : 5126,
            "count" : 190,
            "type" : "VEC2"
        },
        {
            "bufferView" : 31,
            "componentType" : 5123,
            "count" : 288,
            "type" : "SCALAR"
        }
    ],
    "bufferViews" : [
        {
            "buffer" : 0,
            "byteLength" : 3912,
            "byteOffset" : 0
        },
        {
            "buffer" : 0,
            "byteLength" : 3912,
            "byteOffset" : 3912
        },
        {
            "buffer" : 0,
            "byteLength" : 2608,
            "byteOffset" : 7824
        },
        {
            "buffer" : 0,
            "byteLength" : 1032,
            "byteOffset" : 10432
        },
        {
            "buffer" : 0,
            "byteLength" : 3120,
            "byteOffset" : 11464
        },
        {
            "buffer" : 0,
            "byteLength" : 3120,
            "byteOffset" : 14584
        },
        {
            "buffer" : 0,
            "byteLength" : 2080,
            "byteOffset" : 17704
        },
        {
            "buffer" : 0,
            "byteLength" : 1104,
            "byteOffset" : 19784
        },
        {
            "buffer" : 0,
            "byteLength" : 4584,
            "byteOffset" : 20888
        },
        {
            "buffer" : 0,
            "byteLength" : 4584,
            "byteOffset" : 25472
        },
        {
            "buffer" : 0,
            "byteLength" : 3056,
            "byteOffset" : 30056
        },
        {
            "buffer" : 0,
            "byteLength" : 1152,
            "byteOffset" : 33112
        },
        {
            "buffer" : 0,
            "byteLength" : 4584,
            "byteOffset" : 34264
        },
        {
            "buffer" : 0,
            "byteLength" : 4584,
            "byteOffset" : 38848
        },
        {
            "buffer" : 0,
            "byteLength" : 3056,
            "byteOffset" : 43432
        },
        {
            "buffer" : 0,
            "byteLength" : 1152,
            "byteOffset" : 46488
        },
        {
            "buffer" : 0,
            "byteLength" : 1440,
            "byteOffset" : 47640
        },
        {
            "buffer" : 0,
            "byteLength" : 1440,
            "byteOffset" : 49080
        },
        {
            "buffer" : 0,
            "byteLength" : 960,
            "byteOffset" : 50520
        },
        {
            "buffer" : 0,
            "byteLength" : 312,
            "byteOffset" : 51480
        },
        {
            "buffer" : 0,
            "byteLength" : 720,
            "byteOffset" : 51792
        },
        {
            "buffer" : 0,
            "byteLength" : 720,
            "byteOffset" : 52512
        },
        {
            "buffer" : 0,
            "byteLength" : 480,
            "byteOffset" : 53232
        },
        {
            "buffer" : 0,
            "byteLength" : 156,
            "byteOffset" : 53712
        },
        {
            "buffer" : 0,
            "byteLength" : 960,
            "byteOffset" : 53868
        },
        {
            "buffer" : 0,
            "byteLength" : 960,
            "byteOffset" : 54828
        },
        {
            "buffer" : 0,
            "byteLength" : 640,
            "byteOffset" : 55788
        },
        {
            "buffer" : 0,
            "byteLength" : 252,
            "byteOffset" : 56428
        },
        {
            "buffer" : 0,
            "byteLength" : 2280,
            "byteOffset" : 56680
        },
        {
            "buffer" : 0,
            "byteLength" : 2280,
            "byteOffset" : 58960
        },
        {
            "buffer" : 0,
            "byteLength" : 1520,
            "byteOffset" : 61240
        },
        {
            "buffer" : 0,
            "byteLength" : 576,
            "byteOffset" : 62760
        }
    ],
    "buffers" : [
        {
            "byteLength" : 63336,
            "uri" : "Landscape_Scene.bin"
        }
    ]
}
